<mxfile host="app.diagrams.net" modified="2020-11-12T03:48:22.571Z" agent="5.0 (X11; Linux x86_64) AppleWebKit/537.36 (KHTML, like Gecko) Chrome/86.0.4240.75 Safari/537.36" etag="rPInZLyQorA0rfP7dIi3" version="13.9.6" type="github">
  <diagram id="80LBF0uWWLtXQU61a6su" name="Page-1">
    <mxGraphModel dx="1350" dy="774" grid="1" gridSize="10" guides="1" tooltips="1" connect="1" arrows="1" fold="1" page="1" pageScale="1" pageWidth="827" pageHeight="1169" math="0" shadow="0">
      <root>
        <mxCell id="0" />
        <mxCell id="1" parent="0" />
        <mxCell id="gvvGJjCDzovz9uI-ExWb-4" value="" style="rounded=0;whiteSpace=wrap;html=1;fillColor=#CCFFCC;" vertex="1" parent="1">
          <mxGeometry x="167.5" y="190" width="392.5" height="180" as="geometry" />
        </mxCell>
        <mxCell id="gvvGJjCDzovz9uI-ExWb-3" value="" style="edgeStyle=orthogonalEdgeStyle;rounded=0;orthogonalLoop=1;jettySize=auto;html=1;" edge="1" parent="1" source="gvvGJjCDzovz9uI-ExWb-1" target="gvvGJjCDzovz9uI-ExWb-2">
          <mxGeometry relative="1" as="geometry" />
        </mxCell>
        <mxCell id="gvvGJjCDzovz9uI-ExWb-1" value="&lt;pre style=&quot;background-color: #ffffff ; color: #080808 ; font-family: &amp;#34;jetbrains mono&amp;#34; ; font-size: 10.5pt&quot;&gt;base_user&lt;/pre&gt;" style="rounded=1;whiteSpace=wrap;html=1;" vertex="1" parent="1">
          <mxGeometry x="300" y="60" width="120" height="60" as="geometry" />
        </mxCell>
        <mxCell id="gvvGJjCDzovz9uI-ExWb-2" value="&lt;pre style=&quot;background-color: #ffffff ; color: #080808 ; font-family: &amp;#34;jetbrains mono&amp;#34; ; font-size: 10.5pt&quot;&gt;&lt;span style=&quot;color: #000000&quot;&gt;process_qrcode_event&lt;/span&gt;&lt;/pre&gt;" style="whiteSpace=wrap;html=1;rounded=1;fillColor=#E6D0DE;" vertex="1" parent="1">
          <mxGeometry x="265" y="210" width="190" height="80" as="geometry" />
        </mxCell>
        <mxCell id="gvvGJjCDzovz9uI-ExWb-5" value="&lt;span style=&quot;background-color: rgb(255 , 255 , 255) ; font-family: &amp;#34;jetbrains mono&amp;#34; ; font-size: 10.5pt&quot;&gt;UserLogin&lt;/span&gt;" style="text;html=1;strokeColor=none;fillColor=none;align=center;verticalAlign=middle;whiteSpace=wrap;rounded=0;" vertex="1" parent="1">
          <mxGeometry x="310" y="310" width="100" height="50" as="geometry" />
        </mxCell>
      </root>
    </mxGraphModel>
  </diagram>
</mxfile>
